<svg xmlns="http://www.w3.org/2000/svg" width="40" height="25" viewBox="0 0 40 25"><path fill="#006FCF" d="M0 0h40v25H0z"/><path fill="#FFF" d="M12.5 12.5L10 10h5l-2.5 2.5zm0 0l2.5 2.5H10l2.5-2.5zm-2.9-2.9l-2.5 2.5h2.9l2.5-2.5H9.6zm5.8 0l2.5 2.5h-2.9L12.5 9.6h2.9zm-2.9 5.8l-2.5-2.5h2.9l2.5 2.5H9.6zm5.8 0l2.5-2.5h-2.9L12.5 15.4h2.9zM20 10h5v5h-5z"/><path fill="#006FCF" d="M21 11h3v3h-3z"/><path fill="#FFF" d="M27.5 12.5L25 10h5l-2.5 2.5zm0 0l2.5 2.5H25l2.5-2.5zm-2.9-2.9l-2.5 2.5h2.9l2.5-2.5h-2.9zm5.8 0l2.5 2.5h-2.9L27.5 9.6h2.9zm-2.9 5.8l-2.5-2.5h2.9l2.5 2.5h-2.9zm5.8 0l2.5-2.5h-2.9L27.5 15.4h2.9z"/></svg>