<svg width="40" height="25" viewBox="0 0 40 25" fill="none" xmlns="http://www.w3.org/2000/svg">
<path d="M0 0.319946H40V24.3199H0V0.319946Z" fill="#006FCF"/>
<path d="M21.1399 9.31995H25.0599L25.3399 8.03995H21.4999L20.1799 15.36L24.0999 15.6L23.8599 16.84L18.6999 15.88L19.8199 9.95995L18.8999 9.79995L17.8199 15.48L14.4999 14.88L15.6199 8.95995H10.6599L10.3799 10.24H14.1799L13.1399 16.48L9.21995 15.8L10.1399 10.08L11.0599 10.24L12.1399 4.47995L15.4599 5.07995L14.4199 11.32L17.6599 11.92L18.9799 4.59995L22.9399 5.23995L21.8199 11.16L22.7399 11.32L23.8199 5.63995L27.1399 6.23995L26.0999 12.48L29.3399 13.08L30.6599 5.75995L34.6199 6.39995L32.2599 19.36L28.3399 18.68L29.2199 13.2L25.8599 12.56L24.8599 18.52L20.9399 17.84L21.1399 9.31995Z" fill="white"/>
</svg>

    