<svg width="40" height="25" viewBox="0 0 40 25" fill="none" xmlns="http://www.w3.org/2000/svg">
<path d="M15.8208 12.5039C15.8208 8.03389 19.5308 4.32389 24.0008 4.32389C28.4708 4.32389 32.1808 8.03389 32.1808 12.5039C32.1808 16.9739 28.4708 20.6839 24.0008 20.6839C19.5308 20.6839 15.8208 16.9739 15.8208 12.5039Z" fill="#FF5F00"/>
<path d="M25.82 12.5C25.82 14.12 25.13 15.6 24 16.66C22.87 15.6 22.18 14.12 22.18 12.5C22.18 10.88 22.87 9.4 24 8.34C25.13 9.4 25.82 10.88 25.82 12.5Z" fill="#FF9F00"/>
<path d="M32.1792 12.5039C32.1792 16.9739 28.4692 20.6839 23.9992 20.6839C19.5292 20.6839 15.8192 16.9739 15.8192 12.5039C15.8192 8.03389 19.5292 4.32389 23.9992 4.32389C28.4692 4.32389 32.1792 8.03389 32.1792 12.5039Z" fill="#EB001B"/>
<path d="M15.8208 12.5039C15.8208 8.03389 19.5308 4.32389 24.0008 4.32389C28.4708 4.32389 32.1808 8.03389 32.1808 12.5039C32.1808 16.9739 28.4708 20.6839 24.0008 20.6839C19.5308 20.6839 15.8208 16.9739 15.8208 12.5039Z" fill="#FF5F00"/>
<path d="M8 12.5C8 8.03 11.71 4.32 16.18 4.32C13.53 4.32 11.19 5.38 9.46 7.11C7.73 8.84 6.67 11.18 6.67 13.83C6.67 11.18 7.73 8.84 9.46 7.11C11.19 5.38 13.53 4.32 16.18 4.32C11.71 4.32 8 8.03 8 12.5Z" fill="#FF9F00"/>
</svg>

    