<svg width="75" height="20" viewBox="0 0 75 20" fill="none" xmlns="http://www.w3.org/2000/svg">
<path d="M7.7461 0.449219H14.1331L11.7771 14.5052L11.7511 14.6072C11.6991 14.8922 11.5161 15.1112 11.2671 15.2012L11.2151 15.2192C11.1371 15.2462 11.0411 15.2642 10.9541 15.2642H5.4301C5.1071 15.2642 4.8401 15.0152 4.8401 14.6922V14.5052L7.7461 0.449219Z" fill="#253B80"/>
<path d="M19.1415 4.39343C19.0635 4.34143 18.9675 4.31443 18.8805 4.31443H13.2915L12.7575 7.46143L15.0585 7.45243C17.0625 7.45243 18.6675 8.16643 19.3335 9.77143C19.5375 10.2844 19.5375 11.0344 19.2675 11.8324C18.9105 12.8794 18.0675 13.5844 16.9215 13.7884L16.8435 13.8064C16.4865 13.8724 16.0395 13.8814 15.6825 13.8814H14.8845L13.8555 19.5504H17.2005C17.3925 19.5504 17.5575 19.4194 17.6055 19.2484L17.6145 19.2124L17.6595 18.9934L18.1575 16.1424C18.2535 15.5484 18.7245 15.1404 19.3275 15.1404C20.9325 15.1404 22.8615 14.2834 23.4915 11.8324C23.9085 10.1494 23.3655 8.13943 22.1805 6.64243C21.2745 5.50843 20.0895 4.70143 19.1415 4.39343Z" fill="#253B80"/>
<path d="M9.82281 4.39343C9.74481 4.34143 9.64881 4.31443 9.56181 4.31443H3.97281L0.868812 19.2124L0.823812 19.4194C0.775812 19.5994 0.931812 19.7554 1.13281 19.7554H4.51381L5.54281 14.0884H6.38581C7.81381 14.0884 9.47481 13.6324 10.3988 11.8324C10.9878 10.6384 10.9698 9.14143 10.2848 7.93843C9.84681 7.14043 9.07681 5.48143 9.82281 4.39343ZM8.34981 9.41743C8.03481 9.97543 7.50981 10.2934 6.91281 10.3204L6.85281 10.3294L6.10281 10.3654L6.63681 7.20643H7.44381C7.66281 7.20643 7.85481 7.29643 7.99581 7.45243C8.28181 7.76743 8.52181 8.52643 8.34981 9.41743Z" fill="#179BD7"/>
<path d="M49.3366 11.1687L48.2436 4.31471H44.8216L41.7176 19.2127L41.6726 19.4197C41.6246 19.6087 41.7806 19.7557 41.9816 19.7557H45.2626L45.5856 17.6587L46.2246 13.7157C46.2696 13.4397 46.5276 13.2297 46.8036 13.2297H47.4516L48.0456 9.51871C48.2756 8.01271 48.7846 6.84571 49.5676 6.13171C49.7716 5.94271 50.0206 5.82371 50.2876 5.82371H50.8546C52.2826 5.82371 53.9436 6.27971 54.8676 8.07971C55.4566 9.27371 55.4386 10.7707 54.7536 11.9737C54.3156 12.7717 53.5456 14.4307 54.2916 15.5307C54.2136 15.4787 54.1176 15.4517 54.0306 15.4517H51.1026C50.5146 15.4517 50.0046 15.0157 49.9146 14.4397L49.3366 11.1687ZM50.6056 11.5137C50.8816 9.90871 50.1316 8.64871 49.0386 8.42671L48.9876 8.41771L48.5616 8.38171L48.0276 11.5497H48.8346C49.0536 11.5497 49.2456 11.4597 49.3866 11.3037C49.8246 10.8117 50.1906 10.0257 50.6056 11.5137Z" fill="#253B80"/>
<path d="M35.6171 11.1687L34.5241 4.31471H31.1021L27.9981 19.2127L27.9531 19.4197C27.9051 19.6087 28.0611 19.7557 28.2621 19.7557H31.5431L31.8661 17.6587L32.5051 13.7157C32.5501 13.4397 32.8081 13.2297 33.0841 13.2297H33.7321L34.3261 9.51871C34.5561 8.01271 35.0651 6.84571 35.8481 6.13171C36.0521 5.94271 36.3011 5.82371 36.5681 5.82371H37.1351C38.5631 5.82371 40.2241 6.27971 41.1481 8.07971C41.7371 9.27371 41.7191 10.7707 41.0341 11.9737C40.5961 12.7717 39.8261 14.4307 40.5721 15.5307C40.4941 15.4787 40.3981 15.4517 40.3111 15.4517H37.3831C36.7951 15.4517 36.2851 15.0157 36.1951 14.4397L35.6171 11.1687ZM36.8861 11.5137C37.1621 9.90871 36.4121 8.64871 35.3191 8.42671L35.2681 8.41771L34.8421 8.38171L34.3081 11.5497H35.1151C35.3341 11.5497 35.5261 11.4597 35.6671 11.3037C36.1051 10.8117 36.4711 10.0257 36.8861 11.5137Z" fill="#253B80"/>
<path d="M60.1853 4.31471H54.4933L51.3893 19.2127L51.3443 19.4197C51.2963 19.6087 51.4523 19.7557 51.6533 19.7557H55.0343L58.1383 4.83371C58.1743 4.65371 58.0093 4.50671 57.8183 4.50671H54.6043L55.9033 11.5497L55.5133 11.6047L53.4883 4.72271H56.5923L58.6263 11.6047L58.2273 11.5497L59.5353 4.50671H60.1853Z" fill="#253B80"/>
<path d="M74.1947 4.56291C73.9187 4.39391 73.6517 4.31491 73.3667 4.31491H69.4577L68.8077 7.93891L68.8077 7.94791C68.7987 8.00391 68.8347 8.05591 68.8817 8.07391L68.9177 8.08291C69.0487 8.12791 69.1967 8.12791 69.3157 8.08291L69.3517 8.07391C69.3987 8.05591 69.4347 8.00391 69.4257 7.94791L69.4257 7.93891L71.2977 7.45291C72.6347 7.45291 73.7187 8.02591 74.1457 9.17791C74.4317 9.94791 74.3327 10.9419 73.6847 11.8329C72.9347 12.8799 71.7407 13.5669 70.4937 13.7889L70.4067 13.8069C69.9707 13.8729 69.4577 13.8819 69.0197 13.8819H68.3267L67.2977 19.5509H70.6427C70.8347 19.5509 71.0007 19.4199 71.0477 19.2489L71.0567 19.2129L71.1017 18.9939L71.5997 16.1429C71.6957 15.5489 72.1667 15.1409 72.7697 15.1409C74.3747 15.1409 76.3037 14.2839 76.9337 11.8329C77.4257 9.93891 76.2587 7.13191 74.1947 4.56291Z" fill="#179BD7"/>
</svg>

    