<svg xmlns="http://www.w3.org/2000/svg" width="75" height="20" viewBox="0 0 75 20"><path fill="#003087" d="M12.7 6.1c-1.3 0-2.3 1-2.3 2.3s1 2.3 2.3 2.3h2.8c1.3 0 2.3-1 2.3-2.3s-1-2.3-2.3-2.3h-2.8z"/><path fill="#009cde" d="M15.5 6.1c-1.3 0-2.3 1-2.3 2.3s1 2.3 2.3 2.3h1.8c.8 0 1.5-.7 1.5-1.5V6.1h-3.3z"/><path fill="#003087" d="M12.7 6.1c-1.3 0-2.3 1-2.3 2.3s1 2.3 2.3 2.3h2.8c1.3 0 2.3-1 2.3-2.3s-1-2.3-2.3-2.3h-2.8z"/><path fill="#002f86" d="M12.7 6.1c-1.3 0-2.3 1-2.3 2.3s1 2.3 2.3 2.3h2.8c1.3 0 2.3-1 2.3-2.3s-1-2.3-2.3-2.3h-2.8zM25.4 6.1c-1.3 0-2.3 1-2.3 2.3s1 2.3 2.3 2.3h2.8c1.3 0 2.3-1 2.3-2.3s-1-2.3-2.3-2.3h-2.8z"/><path fill="#009cde" d="M28.2 6.1c-1.3 0-2.3 1-2.3 2.3s1 2.3 2.3 2.3h1.8c.8 0 1.5-.7 1.5-1.5V6.1h-3.3z"/><path fill="#002f86" d="M25.4 6.1c-1.3 0-2.3 1-2.3 2.3s1 2.3 2.3 2.3h2.8c1.3 0 2.3-1 2.3-2.3s-1-2.3-2.3-2.3h-2.8zM38.1 6.1c-1.3 0-2.3 1-2.3 2.3s1 2.3 2.3 2.3h2.8c1.3 0 2.3-1 2.3-2.3s-1-2.3-2.3-2.3h-2.8z"/><path fill="#009cde" d="M40.9 6.1c-1.3 0-2.3 1-2.3 2.3s1 2.3 2.3 2.3h1.8c.8 0 1.5-.7 1.5-1.5V6.1h-3.3z"/><path fill="#002f86" d="M38.1 6.1c-1.3 0-2.3 1-2.3 2.3s1 2.3 2.3 2.3h2.8c1.3 0 2.3-1 2.3-2.3s-1-2.3-2.3-2.3h-2.8zM53.1 6.1c-.9 0-1.7.5-2.1 1.3l-.1.2c-.3.7-.4 1.5-.4 2.3s.1 1.6.4 2.3l.1.2c.4.8 1.2 1.3 2.1 1.3h2.8c.9 0 1.7-.5 2.1-1.3l.1-.2c.3-.7.4-1.5.4-2.3s-.1-1.6-.4-2.3l-.1-.2c-.4-.8-1.2-1.3-2.1-1.3h-2.8zM61.9 6.1c-1.3 0-2.3 1-2.3 2.3s1 2.3 2.3 2.3h2.8c1.3 0 2.3-1 2.3-2.3s-1-2.3-2.3-2.3h-2.8z"/><path fill="#009cde" d="M64.7 6.1c-1.3 0-2.3 1-2.3 2.3s1 2.3 2.3 2.3h1.8c.8 0 1.5-.7 1.5-1.5V6.1h-3.3z"/><path fill="#002f86" d="M61.9 6.1c-1.3 0-2.3 1-2.3 2.3s1 2.3 2.3 2.3h2.8c1.3 0 2.3-1 2.3-2.3s-1-2.3-2.3-2.3h-2.8z"/><path fill="#009cde" d="M12.7 6.1c1.3 0 2.3 1 2.3 2.3s-1 2.3-2.3 2.3H9.9c-1.3 0-2.3-1-2.3-2.3s1-2.3 2.3-2.3h2.8z"/><path fill="#003087" d="M9.9 6.1c1.3 0 2.3 1 2.3 2.3s-1 2.3-2.3 2.3H7.1c-1.3 0-2.3-1-2.3-2.3S5.8 6.1 7.1 6.1h2.8z"/><path fill="#009cde" d="M73.5 13.9c0 .6-.5 1.1-1.1 1.1h-2.8c-.6 0-1.1-.5-1.1-1.1V6.1c0-.6.5-1.1 1.1-1.1h2.8c.6 0 1.1.5 1.1 1.1v7.8z"/></svg>