<svg xmlns="http://www.w3.org/2000/svg" width="40" height="25" viewBox="0 0 40 25"><path fill="#1A1F71" d="M1.2 24.1l5.6-23.2h4.5l-5.6 23.2H1.2zm14-23.2c-1.3-1-4.2-1.6-6.7-1.6-5.4.1-9.1 2.5-9.1 6.3 0 3 .9 4.8 4.7 6.1 1 .3 2.5.7 2.5.7l.2.1c1.1.4 1.8.6 1.8 1.2 0 .8-1.2 1.2-2.3 1.2-1.9 0-3.3-.4-4.5-1l-.7-.4-1.2 4.1c1.3 1 4 1.7 6.7 1.8 5.9 0 9.5-2.5 9.5-6.5-.1-2.7-1.9-4.8-5.8-6.3-1.4-.5-2.6-.9-2.6-.9l-.3-.1c-.9-.3-1.5-.5-1.5-1.1 0-.6 1-1 2.1-1 .9 0 2.9.4 4 1l.4.2 1.2-4zm11 15.6c.4-.3.6-.6.6-1.1 0-.5-.3-.8-.9-1l-3.3-1.6c-.5-.2-1-.5-1-.9 0-.4.3-.7.8-.7s.8.2 1 .3l.2.1.6-2.5c-.3-.2-.7-.3-1.2-.3-1.2 0-2.1.5-2.1 1.5 0 .6.4.9 1 1.1l3.3 1.6c.6.2 1 .5 1 .9 0 .5-.4.8-1 .8-.6 0-1-.2-1.3-.4l-.2-.1-.7 2.5c.4.3.9.4 1.5.4 1.4 0 2.3-.5 2.3-1.6zM40 9.4c-1-3.2-3.8-4.5-6.8-4.5-2.3 0-4.2.9-5.4 1.9l-1 3.5c1-.4 2.2-.7 3.4-.7 1.3 0 2.4.3 3.1.9.8.6.9 1.4.3 2.6l-3.2 8.7h3.3l5.3-12.8c.3-.8.4-1.4.3-1.8z"/></svg>