<svg width="40" height="25" viewBox="0 0 40 25" fill="none" xmlns="http://www.w3.org/2000/svg">
<path d="M14.616 24.31H9.528L13.44 0.32H18.528L14.616 24.31ZM25.322 12.19C25.322 9.67 28.318 7.45 30.638 6.43L31.022 6.25C31.522 6.01 31.818 5.47 31.818 4.93C31.818 4.09 31.138 3.55 30.058 3.55C28.538 3.55 27.202 4.33 26.602 5.17L25.802 6.25L22.258 0.32H26.798C27.918 0.32 29.338 0.74 30.518 1.58C31.858 2.5 32.758 3.76 32.758 5.41C32.758 8.05 30.518 9.55 28.538 10.45L28.158 10.63C27.478 10.99 27.058 11.47 27.058 12.13C27.058 12.91 27.958 13.51 29.138 13.51C30.958 13.51 32.098 12.43 32.518 11.77L33.058 10.93L36.778 24.31H32.098C31.078 24.31 30.298 23.83 29.998 23.05L29.938 22.87C28.758 19.87 27.858 17.77 25.322 17.77C22.682 17.77 20.918 19.57 20.918 22.15C20.918 23.59 21.758 24.31 22.718 24.31H24.318L25.058 20.95H26.358L25.322 12.19ZM3.312 24.31H0L5.328 0.32H8.4L3.312 24.31Z" fill="#0057A0"/>
</svg>

    