<svg width="1000" height="1000" viewBox="0 0 1000 1000" xmlns="http://www.w3.org/2000/svg">
  <!-- Background -->
  <rect width="1000" height="1000" fill="#FED5E3"/>
  
  <!-- Group for Logo -->
  <g transform="translate(500, 500)">
    <!-- Main Text -->
    <text text-anchor="middle" dy="0.35em" fill="#C189B1" style="font-family: 'Segoe UI', Roboto, Helvetica, Arial, sans-serif; font-weight: 700; font-size: 110px; letter-spacing: 0.15em;">CUDDLEIA</text>
    
    <!-- Stylized Flower Icon (Hand-drawn aesthetic) -->
    <g transform="translate(260, -80) scale(1.2)">
      <path d="M20 50C20 50 5 35 5 20C5 5 20 0 20 0C20 0 35 5 35 20C35 35 20 50 20 50Z" fill="none" stroke="#C189B1" stroke-width="3"/>
      <path d="M20 50V120" stroke="#C189B1" stroke-width="3"/>
      <path d="M20 85C20 85 40 75 50 65" stroke="#C189B1" stroke-width="3"/>
      <path d="M20 95C20 95 0 85 -10 75" stroke="#C189B1" stroke-width="3"/>
      <!-- Petals around the center -->
      <circle cx="20" cy="15" r="8" fill="none" stroke="#C189B1" stroke-width="2"/>
      <path d="M10 25C10 25 5 15 10 5" fill="none" stroke="#C189B1" stroke-width="1.5"/>
      <path d="M30 25C30 25 35 15 30 5" fill="none" stroke="#C189B1" stroke-width="1.5"/>
    </g>
  </g>
</svg>