<svg
  width="100"
  height="100"
  viewBox="0 0 100 100"
  xmlns="http://www.w3.org/2000/svg"
>
  <rect width="100" height="100" rx="20" fill="hsl(340 100% 96%)" />
  <svg
    x="15"
    y="15"
    width="70"
    height="70"
    viewBox="0 0 24 24"
    fill="none"
    stroke="hsl(340 90% 65%)"
    stroke-width="1.5"
    stroke-linecap="round"
    stroke-linejoin="round"
    xmlns="http://www.w3.org/2000/svg"
  >
    <path d="M12 7c3.333-2.667 6.667-2.667 10 0" />
    <path d="M12 7v10" />
    <path d="M12 17c-3.333 2.667-6.667 2.667-10 0" />
    <path d="M12 17c3.333-2.667 6.667-2.667 10 0" />
    <path d="M12 7c-3.333-2.667-6.667-2.667-10 0" />
    <path d="M19.667 10.5c2.667-3.333 2.667-6.667 0-10" />
    <path d="M4.333 10.5c-2.667-3.333-2.667-6.667 0-10" />
    <path d="M19.667 13.5c2.667 3.333 2.667 6.667 0 10" />
    <path d="M4.333 13.5c-2.667 3.333-2.667 6.667 0 10" />
    <circle cx="12" cy="12" r="2" />
  </svg>
</svg>
